Coordinates
version=1
nRows=9
nColumns=36
inDegrees=yes

Units are S.I. units (second, meters, Newtons, ...)
If the header above contains a line with 'inDegrees', this indicates whether rotational values are in degrees (yes) or radians (no).

endheader
time	pelvis_tilt	pelvis_list	pelvis_rotation	pelvis_tx	pelvis_ty	pelvis_tz	hip_flexion_r	hip_adduction_r	hip_rotation_r	knee_angle_r	knee_angle_r_beta	ankle_angle_r	subtalar_angle_r	mtp_angle_r	hip_flexion_l	hip_adduction_l	hip_rotation_l	knee_angle_l	knee_angle_l_beta	ankle_angle_l	subtalar_angle_l	mtp_angle_l	lumbar_extension	lumbar_bending	lumbar_rotation	arm_flex_r	arm_add_r	arm_rot_r	elbow_flex_r	pro_sup_r	arm_flex_l	arm_add_l	arm_rot_l	elbow_flex_l	pro_sup_l
      0.00000000	      0.98723255	     -1.36369052	     -0.30283895	     -0.95701381	      1.28498981	     -0.07631504	     -0.86231111	      0.79375345	     -4.39405117	     11.80259256	      0.20599410	      2.00657905	    -24.84258804	     -5.98264565	     -0.87850830	     -0.94849658	      0.12482234	     11.31035435	      0.19740292	      5.88879470	    -17.87855075	     -5.98264565	    -11.28084915	      2.59450534	     -1.99451780	     10.26211109	     -5.41208636	     20.09988472	     30.48924782	     79.76891899	     11.38230897	     -4.43681678	     26.39677793	     30.37405230	     68.03784982
      0.00416670	     -1.65849853	     -0.24273067	     -0.16309334	     -0.95334670	      1.28421561	     -0.07868383	      2.67033684	     -0.40019919	     -4.01178071	     13.10450512	      0.22871676	      6.52864038	    -21.04024982	     -6.06587216	      3.63143064	      0.58103841	     -0.56210349	     13.33015907	      0.23265517	      6.56636986	    -17.13342801	     -6.06587216	     -7.71575886	      1.70151239	     -2.40702646	      9.14484447	     -4.85244938	     18.27449959	     29.06350519	     80.33037443	     11.20719839	     -3.48037846	     23.72527190	     28.14568622	     67.98831344
      0.00833330	     -2.13300616	      0.80501196	     -0.46649841	     -0.95269506	      1.28364207	     -0.07626646	      2.82056916	     -1.55045241	     -4.32958858	     12.26092220	      0.21399346	      7.34040657	    -20.12588728	     -6.19021229	      4.07184154	      1.42087913	     -2.13698336	     13.32638739	      0.23258934	      6.34129281	    -17.40450177	     -6.19021229	     -6.89860179	      0.30933101	     -2.24397641	      9.08845487	     -4.35241596	     18.62887195	     28.52301464	     79.62720085	     11.43395770	     -4.23228645	     24.78078609	     28.42855756	     67.80397023
      0.01250000	     -1.65250628	      1.14540699	     -0.50364828	     -0.95363112	      1.28630049	     -0.07455287	      1.95136949	     -1.83222233	     -4.82049663	     11.48553441	      0.20046039	      7.94874409	    -19.50634681	     -6.31811492	      3.08987639	      1.72975159	     -2.52664074	     12.58140155	      0.21958688	      5.83517530	    -18.34799779	     -6.31811492	     -7.52968064	     -0.19676643	     -2.08185853	      9.25108697	     -4.19148477	     19.50325572	     28.15976251	     79.40172937	     11.92312724	     -4.99534035	     26.92846998	     28.73261096	     68.11226040
      0.01666670	     -1.41798093	      1.31809003	     -0.24049799	     -0.95116042	      1.28951030	     -0.07617745	      1.10795501	     -1.86301823	     -4.86244744	     10.63801188	      0.18566833	      8.34926483	    -18.93338604	     -6.47620960	      2.44778789	      2.06039046	     -2.20982773	     11.93352121	      0.20827924	      4.95963397	    -19.52937179	     -6.47620960	     -7.78368728	     -0.35178146	     -1.98475650	      9.02443242	     -4.49580326	     21.25306458	     28.29208049	     79.66912006	     12.68479439	     -5.73382052	     31.87918112	     28.55183226	     69.06914006
      0.02083330	     -1.03960736	      1.40439061	     -0.02119231	     -0.95049063	      1.28483614	     -0.07601240	      0.31349464	     -1.82294940	     -4.74252683	     10.07744393	      0.17588458	      8.53740988	    -19.11554880	     -6.50912430	      1.88068461	      2.18059654	     -2.27139244	     11.67915377	      0.20383969	      4.50298983	    -20.40579896	     -6.50912430	     -8.24715847	     -0.46975006	     -1.84042827	      8.83403595	     -4.67040930	     21.73027431	     28.68947340	     79.92044731	     13.22778281	     -6.01777608	     34.25236187	     28.54860333	     69.37510032
      0.02500000	     -1.12261471	      1.41792505	      0.18211106	     -0.95203341	      1.28914201	     -0.07681239	      0.33527048	     -1.80377053	     -4.66699583	      9.94227337	      0.17352541	      8.60670524	    -19.13611814	     -6.51049986	      1.96222024	      2.27170877	     -2.27270295	     11.53441808	      0.20131357	      4.50656809	    -20.42404978	     -6.51049986	     -8.35375703	     -0.45600928	     -1.95012979	      8.83191143	     -4.70370593	     21.76200700	     28.69188655	     79.92866935	     13.35932665	     -5.87798823	     34.31425164	     28.59868694	     69.38463658
      0.02916670	     -0.64006670	      1.41064421	      0.40740351	     -0.95191397	      1.29077662	     -0.07684408	     -0.65153113	     -1.67700504	     -4.29991409	      9.02719816	      0.15755433	      7.99255075	    -19.82774101	     -6.59920376	      1.20677227	      2.36237915	     -1.67363331	     10.98876802	      0.19179018	      3.64653644	    -21.22901458	     -6.59920376	     -9.03733764	     -0.44549800	     -1.98577907	      9.00288604	     -5.05789093	     23.43958920	     29.00249009	     79.94606868	     14.00527486	     -6.08339146	     36.91884849	     28.42195193	     69.60957280
      0.03333330	     -0.49855185	      1.37144056	      0.48995117	     -0.95146441	      1.28808391	     -0.07525845	     -0.95077641	     -1.49977292	     -4.22468279	      8.68415049	      0.15156702	      7.83386762	    -20.14087965	     -6.75124374	      1.00193141	      2.26971518	     -1.45191494	     10.69387347	      0.18664330	      3.28468956	    -21.48832122	     -6.75124374	     -9.30407565	     -0.44338673	     -1.91349956	      9.16752803	     -5.21010286	     24.78421404	     28.88585197	     78.39909938	     14.41301827	     -6.20762588	     38.87378877	     28.30589792	     68.72287354
